<?xml version="1.0" standalone="no"?><!DOCTYPE svg PUBLIC "-//W3C//DTD SVG 1.1//EN" "http://www.w3.org/Graphics/SVG/1.1/DTD/svg11.dtd"><svg t="1623305558702" class="icon" viewBox="0 0 1024 1024" version="1.1" xmlns="http://www.w3.org/2000/svg" p-id="15305" xmlns:xlink="http://www.w3.org/1999/xlink" width="200" height="200"><defs><style type="text/css"></style></defs><path d="M546.14016 785.2032c0-0.03072 0.04096-0.1024 0.04096-0.17408h-0.04096v-37.19168c115.74272-18.98496 204.77952-132.48512 204.77952-269.9776C750.87872 270.53056 643.9424 102.4 511.9488 102.4c-131.93216 0-238.85824 168.13056-238.85824 375.47008 0 137.49248 89.05728 250.99264 204.8 269.9776v37.36576a68.22912 68.22912 0 0 1-68.23936 68.096v0.03072H307.21024V921.6h409.6v-68.27008h-102.4a68.29056 68.29056 0 0 1-68.27008-68.12672zM400.61952 248.99584c18.62656-29.2352 57.86624-78.336 111.32928-78.336 80.73216 0 170.67008 126.16704 170.69056 307.2h-341.2992c0-86.19008 21.6064-169.59488 59.27936-228.864z m-49.3056 297.14432h321.36192c-23.45984 79.40096-86.53824 136.51968-160.6656 136.51968-74.12736 0-137.19552-57.11872-160.69632-136.51968z" p-id="15306"></path></svg>