<?xml version="1.0" standalone="no"?><!DOCTYPE svg PUBLIC "-//W3C//DTD SVG 1.1//EN" "http://www.w3.org/Graphics/SVG/1.1/DTD/svg11.dtd"><svg t="1627607148698" class="icon" viewBox="0 0 1024 1024" version="1.1" xmlns="http://www.w3.org/2000/svg" p-id="7158" xmlns:xlink="http://www.w3.org/1999/xlink" width="200" height="200"><defs><style type="text/css">@font-face { font-family: feedback-iconfont; src: url("//at.alicdn.com/t/font_1031158_1uhr8ri0pk5.eot?#iefix") format("embedded-opentype"), url("//at.alicdn.com/t/font_1031158_1uhr8ri0pk5.woff2") format("woff2"), url("//at.alicdn.com/t/font_1031158_1uhr8ri0pk5.woff") format("woff"), url("//at.alicdn.com/t/font_1031158_1uhr8ri0pk5.ttf") format("truetype"), url("//at.alicdn.com/t/font_1031158_1uhr8ri0pk5.svg#iconfont") format("svg"); }
</style></defs><path d="M828.36 883.22H234a139.54 139.54 0 0 1-139.4-139.38v-422.4A139.54 139.54 0 0 1 234 182h594.36a139.54 139.54 0 0 1 139.38 139.38v422.4a139.54 139.54 0 0 1-139.38 139.44zM234 234a87.48 87.48 0 0 0-87.4 87.38v422.4a87.48 87.48 0 0 0 87.4 87.44h594.36a87.48 87.48 0 0 0 87.38-87.38v-422.4A87.48 87.48 0 0 0 828.36 234z" fill="#231815" p-id="7159"></path><path d="M941.74 475.04H120.66a26 26 0 0 1 0-52h821.08a26 26 0 0 1 0 52z" fill="#231815" p-id="7160"></path><path d="M321.78 119.14m39.68 0l0.02 0q39.68 0 39.68 39.68l0 135.16q0 39.68-39.68 39.68l-0.02 0q-39.68 0-39.68-39.68l0-135.16q0-39.68 39.68-39.68Z" fill="#F6AE65" p-id="7161"></path><path d="M644.76 119.14m39.68 0l0.02 0q39.68 0 39.68 39.68l0 135.16q0 39.68-39.68 39.68l-0.02 0q-39.68 0-39.68-39.68l0-135.16q0-39.68 39.68-39.68Z" fill="#F6AE65" p-id="7162"></path><path d="M361.46 542.18m24 0l39.44 0q24 0 24 24l0 39.44q0 24-24 24l-39.44 0q-24 0-24-24l0-39.44q0-24 24-24Z" fill="#F6AE65" p-id="7163"></path><path d="M640.72 542.18m24 0l39.44 0q24 0 24 24l0 39.44q0 24-24 24l-39.44 0q-24 0-24-24l0-39.44q0-24 24-24Z" fill="#F6AE65" p-id="7164"></path><path d="M361.46 680.34m24 0l39.44 0q24 0 24 24l0 39.44q0 24-24 24l-39.44 0q-24 0-24-24l0-39.44q0-24 24-24Z" fill="#F6AE65" p-id="7165"></path><path d="M640.72 680.34m24 0l39.44 0q24 0 24 24l0 39.44q0 24-24 24l-39.44 0q-24 0-24-24l0-39.44q0-24 24-24Z" fill="#F6AE65" p-id="7166"></path></svg>