<?xml version="1.0" standalone="no"?><!DOCTYPE svg PUBLIC "-//W3C//DTD SVG 1.1//EN" "http://www.w3.org/Graphics/SVG/1.1/DTD/svg11.dtd"><svg t="1623305561983" class="icon" viewBox="0 0 1024 1024" version="1.1" xmlns="http://www.w3.org/2000/svg" p-id="15436" xmlns:xlink="http://www.w3.org/1999/xlink" width="200" height="200"><defs><style type="text/css"></style></defs><path d="M757.77024 430.1312c-27.09504 0-52.29568 7.19872-74.8032 18.90304 0.75776-35.33824 14.60224-68.49536 39.70048-93.57312L674.39616 307.2a204.0832 204.0832 0 0 0-59.87328 142.06976c-22.59968-11.86816-47.96416-19.12832-75.264-19.12832-21.504 0-41.94304 4.4032-60.74368 11.9296-0.13312-2.2016-0.65536-4.27008-0.65536-6.5024v-60.09856c0-63.39584-43.43808-116.20352-102.0416-131.60448 0.90112-35.20512 14.73536-68.1984 39.74144-93.16352L367.29856 102.4a204.53376 204.53376 0 0 0-59.904 141.33248C248.50432 258.8672 204.8 311.86944 204.8 375.47008l-0.07168 60.06784c0 28.2624-10.76224 56.59648-32.3584 78.20288A238.2336 238.2336 0 0 0 102.4 682.65984C102.4 814.60224 209.39776 921.6 341.32992 921.6c55.94112 0 107.27424-19.37408 147.968-51.56864C534.1696 902.32832 589.06624 921.6 648.57088 921.6 799.3344 921.6 921.6 799.34464 921.6 648.56064v-54.59968c0-90.49088-73.3696-163.82976-163.82976-163.82976zM341.32992 853.32992c-94.09536 0-170.65984-76.57472-170.65984-170.67008 0-45.55776 17.72544-88.4224 50.00192-120.65792a177.74592 177.74592 0 0 0 52.3264-126.464l0.07168-59.99616c0-30.93504 21.10464-57.93792 51.33312-65.66912l17.13152-4.43392 16.93696 4.43392c30.12608 7.92576 51.12832 34.88768 51.12832 65.59744v60.09856c0 47.80032 18.59584 92.69248 52.4288 126.47424A169.53344 169.53344 0 0 1 512 682.65984c0 94.09536-76.57472 170.67008-170.67008 170.67008z m512-204.76928c0 112.896-91.86304 204.76928-204.75904 204.76928-41.2672 0-79.63648-12.35968-111.84128-33.47456a237.4656 237.4656 0 0 0 43.54048-137.19552 238.20288 238.20288 0 0 0-70.00064-168.92928c-2.53952-2.53952-4.53632-5.46816-6.79936-8.23296a94.88384 94.88384 0 0 1 35.79904-7.09632c23.45984 0 46.05952 8.704 63.66208 24.50432l45.59872 40.93952 45.59872-40.93952a95.20128 95.20128 0 0 1 63.6416-24.50432c52.69504 0 95.55968 42.86464 95.55968 95.55968v54.59968z" p-id="15437"></path></svg>