<?xml version="1.0" standalone="no"?><!DOCTYPE svg PUBLIC "-//W3C//DTD SVG 1.1//EN" "http://www.w3.org/Graphics/SVG/1.1/DTD/svg11.dtd"><svg t="1623305540989" class="icon" viewBox="0 0 1024 1024" version="1.1" xmlns="http://www.w3.org/2000/svg" p-id="14647" xmlns:xlink="http://www.w3.org/1999/xlink" width="200" height="200"><defs><style type="text/css"></style></defs><path d="M241.230769 127.015385l0 243.2 101.292308 101.292308c0 0-10.092308 115.569231-10.092308 222.892308s10.092308 263.384615 10.092308 263.384615l40.492308 0c0 0 10.092308-156.923077 10.092308-263.384615 0-106.584615-10.092308-222.892308-10.092308-222.892308l101.292308-101.292308L484.307692 127.015385l-40.492308-60.8 0 284.184615-81.107692 77.292308L281.846154 350.4 281.846154 66.215385 241.230769 127.015385 241.230769 127.015385z" p-id="14648"></path><path d="M768 366.646154c0-40.369231-20.307692-300.430769-121.6-300.430769s-121.6 260.061538-121.6 300.430769c0 80.861538 101.292308 106.092308 101.292308 106.092308s-10.092308 121.230769-10.092308 222.276923c0 101.046154 10.092308 262.769231 10.092308 262.769231l40.492308 0c0 0 10.092308-157.169231 10.092308-262.769231 0-105.476923-10.092308-222.276923-10.092308-222.276923S768 447.507692 768 366.646154L768 366.646154zM646.4 409.230769c-81.969231 0-80.984615-54.892308-70.153846-140.307692 10.830769-85.538462 45.415385-140.430769 70.153846-140.430769 24.738462 0 59.692308 57.353846 70.153846 140.430769C727.138462 351.876923 728.369231 409.230769 646.4 409.230769L646.4 409.230769z" p-id="14649"></path><path d="M342.523077 66.215385 383.015385 66.215385 383.015385 349.907692 342.523077 349.907692 342.523077 66.215385Z" p-id="14650"></path></svg>