<?xml version="1.0" standalone="no"?><!DOCTYPE svg PUBLIC "-//W3C//DTD SVG 1.1//EN" "http://www.w3.org/Graphics/SVG/1.1/DTD/svg11.dtd"><svg t="1626339185747" class="icon" viewBox="0 0 1024 1024" version="1.1" xmlns="http://www.w3.org/2000/svg" p-id="1454" xmlns:xlink="http://www.w3.org/1999/xlink" width="200" height="200"><defs><style type="text/css"></style></defs><path d="M687 479.8c-12.7-6.2-25.7-11.8-38.9-16.6 49.8-40.3 81.6-101.8 81.6-170.6 0-12.6-1.1-24.9-3.1-36.9h78.2v-73.1H700.2c-38-65.4-108.9-109.4-189.8-109.4-121 0-219.4 98.4-219.4 219.4 0 68.9 31.9 130.5 81.7 170.7-154.2 56.4-264.6 204.5-264.6 378h73.1c0-181.5 147.7-329.1 329.1-329.1 50.7 0 99.3 11.2 144.5 33.3l32.2-65.7z m-80.3-297.2H414c25.8-22.6 59.5-36.3 96.3-36.3 36.9 0 70.6 13.7 96.4 36.3z m-237.9 73.1H652c3.1 11.8 4.7 24.1 4.7 36.9 0 80.7-65.6 146.3-146.3 146.3s-146.3-65.6-146.3-146.3c0-12.8 1.6-25.1 4.7-36.9zM731.5 548.7c-101 0-182.9 81.9-182.9 182.9s81.9 182.9 182.9 182.9 182.9-81.9 182.9-182.9c-0.1-101-81.9-182.9-182.9-182.9z m0 292.6c-60.5 0-109.7-49.2-109.7-109.7S671 621.9 731.5 621.9s109.7 49.2 109.7 109.7S792 841.3 731.5 841.3z" fill="#0F1F3C" p-id="1455"></path><path d="M758.9 655.7H704V743l69.4 68.8 38.6-39-53.1-52.7z" fill="#0F1F3C" p-id="1456"></path></svg>