<?xml version="1.0" standalone="no"?><!DOCTYPE svg PUBLIC "-//W3C//DTD SVG 1.1//EN" "http://www.w3.org/Graphics/SVG/1.1/DTD/svg11.dtd"><svg t="1623305551221" class="icon" viewBox="0 0 1024 1024" version="1.1" xmlns="http://www.w3.org/2000/svg" p-id="15042" xmlns:xlink="http://www.w3.org/1999/xlink" width="200" height="200"><defs><style type="text/css"></style></defs><path d="M868.266667 177.066667l-74.666667-85.333334c-4.266667-4.266667-10.666667-6.4-14.933333-6.4-6.4 0-10.666667 2.133333-14.933334 6.4L648.533333 213.333333H375.466667l-113.066667-121.6c-4.266667-4.266667-10.666667-6.4-17.066667-6.4-6.4 0-10.666667 2.133333-14.933333 6.4l-74.666667 85.333334c-4.266667 4.266667-6.4 8.533333-6.4 14.933333v524.8c0 6.4 2.133333 10.666667 6.4 14.933333l200.533334 200.533334c4.266667 4.266667 8.533333 6.4 14.933333 6.4h283.733333c6.4 0 10.666667-2.133333 14.933334-6.4l200.533333-200.533334c4.266667-4.266667 6.4-8.533333 6.4-14.933333V192c-2.133333-6.4-4.266667-10.666667-8.533333-14.933333z m-91.733334-38.4L832 198.4V384l-147.2-147.2 91.733333-98.133333z m-529.066666 0l91.733333 98.133333L192 384V198.4l55.466667-59.733333zM832 708.266667L644.266667 896H379.733333L192 708.266667V443.733333l187.733333-187.733333h264.533334l187.733333 187.733333V708.266667z" p-id="15043"></path><path d="M610.133333 725.333333H533.333333v-85.333333h42.666667v-42.666667h-128v42.666667h42.666667v85.333333h-76.8l-55.466667-57.6-29.866667 29.866667 61.866667 64c4.266667 4.266667 8.533333 6.4 14.933333 6.4h213.333334c6.4 0 10.666667-2.133333 14.933333-6.4l64-64-29.866667-29.866667-57.6 57.6zM618.666667 469.333333h85.333333v42.666667h-85.333333zM320 469.333333h85.333333v42.666667h-85.333333z" p-id="15044"></path></svg>