<?xml version="1.0" standalone="no"?><!DOCTYPE svg PUBLIC "-//W3C//DTD SVG 1.1//EN" "http://www.w3.org/Graphics/SVG/1.1/DTD/svg11.dtd"><svg t="1627617942047" class="icon" viewBox="0 0 1024 1024" version="1.1" xmlns="http://www.w3.org/2000/svg" p-id="4968" xmlns:xlink="http://www.w3.org/1999/xlink" width="200" height="200"><defs><style type="text/css">@font-face { font-family: feedback-iconfont; src: url("//at.alicdn.com/t/font_1031158_1uhr8ri0pk5.eot?#iefix") format("embedded-opentype"), url("//at.alicdn.com/t/font_1031158_1uhr8ri0pk5.woff2") format("woff2"), url("//at.alicdn.com/t/font_1031158_1uhr8ri0pk5.woff") format("woff"), url("//at.alicdn.com/t/font_1031158_1uhr8ri0pk5.ttf") format("truetype"), url("//at.alicdn.com/t/font_1031158_1uhr8ri0pk5.svg#iconfont") format("svg"); }
</style></defs><path d="M511.3 513.2m-446.6 0a446.6 446.6 0 1 0 893.2 0 446.6 446.6 0 1 0-893.2 0Z" fill="#75EAE4" p-id="4969"></path><path d="M511.3 979.8c-63 0-124.1-12.3-181.6-36.7-55.6-23.5-105.5-57.1-148.3-100s-76.5-92.7-100-148.3c-24.3-57.5-36.7-118.6-36.7-181.6S57 389.1 81.4 331.6c23.5-55.6 57.1-105.5 100-148.3s92.7-76.5 148.3-100C387.3 59 448.4 46.7 511.3 46.7c63 0 124.1 12.3 181.6 36.7 55.6 23.5 105.5 57.1 148.3 100s76.5 92.7 100 148.3c24.3 57.5 36.7 118.6 36.7 181.6s-12.3 124.1-36.7 181.6c-23.5 55.6-57.1 105.5-100 148.3-42.8 42.8-92.7 76.5-148.3 100-57.5 24.3-118.6 36.6-181.6 36.6z m0-893.1c-57.6 0-113.5 11.3-166 33.5-50.8 21.5-96.4 52.2-135.6 91.4s-69.9 84.8-91.4 135.6c-22.2 52.6-33.5 108.4-33.5 166s11.3 113.5 33.5 166c21.5 50.8 52.2 96.4 91.4 135.6s84.8 69.9 135.6 91.4c52.6 22.2 108.4 33.5 166 33.5s113.5-11.3 166-33.5c50.8-21.5 96.4-52.2 135.6-91.4s69.9-84.8 91.4-135.6c22.2-52.6 33.5-108.4 33.5-166s-11.3-113.5-33.5-166c-21.5-50.8-52.2-96.4-91.4-135.6s-84.8-69.9-135.6-91.4c-52.5-22.3-108.4-33.5-166-33.5z" fill="#05C4CE" p-id="4970"></path><path d="M83.9 487.4a427.4 420.8 0 1 0 854.8 0 427.4 420.8 0 1 0-854.8 0Z" fill="#FFFFFF" p-id="4971"></path><path d="M348 207.7a36.2 39.6 0 1 0 72.4 0 36.2 39.6 0 1 0-72.4 0Z" fill="#FF9900" p-id="4972"></path><path d="M602.3 207.7a36.2 39.6 0 1 0 72.4 0 36.2 39.6 0 1 0-72.4 0Z" fill="#FF9900" p-id="4973"></path><path d="M228.543307 276.032436a28.1 53.1 87.699 1 0 106.11437-4.263848 28.1 53.1 87.699 1 0-106.11437 4.263848Z" fill="#f4ea2a" p-id="4974"></path><path d="M685.741969 257.631821a28.1 53.1 87.699 1 0 106.114371-4.263849 28.1 53.1 87.699 1 0-106.114371 4.263849Z" fill="#f4ea2a" p-id="4975"></path><path d="M511.3 979.8c-63 0-124.1-12.3-181.6-36.7-55.6-23.5-105.5-57.1-148.3-100s-76.5-92.7-100-148.3c-24.3-57.5-36.7-118.6-36.7-181.6S57 389.1 81.4 331.6c23.5-55.6 57.1-105.5 100-148.3s92.7-76.5 148.3-100C387.3 59 448.4 46.7 511.3 46.7c63 0 124.1 12.3 181.6 36.7 55.6 23.5 105.5 57.1 148.3 100s76.5 92.7 100 148.3c24.3 57.5 36.7 118.6 36.7 181.6s-12.3 124.1-36.7 181.6c-23.5 55.6-57.1 105.5-100 148.3-42.8 42.8-92.7 76.5-148.3 100-57.5 24.3-118.6 36.6-181.6 36.6z m0-893.1c-57.6 0-113.5 11.3-166 33.5-50.8 21.5-96.4 52.2-135.6 91.4s-69.9 84.8-91.4 135.6c-22.2 52.6-33.5 108.4-33.5 166s11.3 113.5 33.5 166c21.5 50.8 52.2 96.4 91.4 135.6s84.8 69.9 135.6 91.4c52.6 22.2 108.4 33.5 166 33.5s113.5-11.3 166-33.5c50.8-21.5 96.4-52.2 135.6-91.4s69.9-84.8 91.4-135.6c22.2-52.6 33.5-108.4 33.5-166s-11.3-113.5-33.5-166c-21.5-50.8-52.2-96.4-91.4-135.6s-84.8-69.9-135.6-91.4c-52.5-22.3-108.4-33.5-166-33.5z" fill="#FF9900" p-id="4976"></path><path d="M511.7 383.7c-51.2 0-99.5-19.4-135.8-54.8-7.9-7.7-8.1-20.4-0.4-28.3 7.7-7.9 20.4-8.1 28.3-0.4 28.8 28 67.1 43.4 107.9 43.4 41.7 0 80.6-16 109.6-45.1 7.8-7.8 20.5-7.8 28.3 0 7.8 7.8 7.8 20.5 0 28.3-36.6 36.7-85.5 56.9-137.9 56.9z" fill="#FF9900" p-id="4977"></path></svg>